<svg width="22" height="20" viewBox="0 0 22 20" fill="none" xmlns="http://www.w3.org/2000/svg">
<path fill-rule="evenodd" clip-rule="evenodd" d="M0.0383366 12.0033V19.1667C0.0383366 19.6267 0.40663 20 0.86042 20H2.62954C2.82423 20 3.01261 19.93 3.16115 19.8025C3.30969 19.6749 3.40874 19.498 3.44067 19.3033L3.87473 16.6667H18.1242L18.5571 19.3033C18.5891 19.498 18.6881 19.6749 18.8367 19.8025C18.9852 19.93 19.1736 20 19.3683 20H21.1385C21.3565 20 21.5656 19.9122 21.7198 19.7559C21.874 19.5996 21.9606 19.3877 21.9606 19.1667V12.0033C21.9606 10.6971 21.5792 9.42015 20.8645 8.33333L20.0095 7.03333C19.9332 6.91759 19.8679 6.79483 19.8144 6.66667H20.9039C21.0567 6.66666 21.2064 6.62352 21.3363 6.54207C21.4662 6.46062 21.5712 6.34409 21.6394 6.20556L21.9134 5.65C21.976 5.52304 22.0055 5.38199 21.9992 5.24022C21.9929 5.09846 21.9509 4.96068 21.8774 4.83994C21.8038 4.71919 21.7011 4.61949 21.5789 4.55028C21.4567 4.48107 21.319 4.44464 21.179 4.44444H19.3299L18.9901 2.72667C18.8867 2.20351 18.6369 1.72159 18.2705 1.33855C17.9041 0.955502 17.4366 0.687529 16.9239 0.566667C15.3214 0.188889 13.3462 0 10.9995 0C8.65158 0 6.67748 0.188889 5.07497 0.566667C4.5621 0.68734 4.09438 0.95523 3.72777 1.33829C3.36115 1.72135 3.11116 2.20336 3.0077 2.72667L2.66791 4.44444H0.82096C0.680968 4.44464 0.543344 4.48107 0.421132 4.55028C0.298919 4.61949 0.196167 4.71919 0.122614 4.83994C0.0490612 4.96068 0.00714391 5.09846 0.000835285 5.24022C-0.00547334 5.38199 0.0240356 5.52304 0.0865654 5.65L0.360593 6.20556C0.428739 6.34392 0.533525 6.46034 0.663225 6.54178C0.792926 6.62321 0.942423 6.66646 1.09499 6.66667H2.18562C2.13206 6.79482 2.06674 6.91758 1.99051 7.03333L1.13445 8.33333C0.419783 9.42 0.0383366 10.6967 0.0383366 12.0033ZM17.5334 6.67111C17.6089 7.05541 17.7342 7.4279 17.906 7.77889H4.09285C4.26494 7.42889 4.3899 7.05667 4.46553 6.67111L5.15827 3.16333C5.17872 3.05846 5.22859 2.96179 5.30188 2.88493C5.37518 2.80806 5.4688 2.75427 5.57151 2.73C6.99426 2.39667 8.80723 2.22222 10.9995 2.22222C13.1917 2.22222 15.0046 2.39556 16.4274 2.73111C16.5302 2.75511 16.6239 2.80866 16.6974 2.88532C16.7709 2.96199 16.821 3.05852 16.8417 3.16333L17.5334 6.67111ZM3.87473 13.3333C4.31079 13.3333 4.72899 13.1577 5.03733 12.8452C5.34567 12.5326 5.51889 12.1087 5.51889 11.6667C5.51889 11.2246 5.34567 10.8007 5.03733 10.4882C4.72899 10.1756 4.31079 10 3.87473 10C3.43867 10 3.02047 10.1756 2.71212 10.4882C2.40378 10.8007 2.23056 11.2246 2.23056 11.6667C2.23056 12.1087 2.40378 12.5326 2.71212 12.8452C3.02047 13.1577 3.43867 13.3333 3.87473 13.3333ZM19.7683 11.6667C19.7683 12.1087 19.5951 12.5326 19.2868 12.8452C18.9784 13.1577 18.5602 13.3333 18.1242 13.3333C17.6881 13.3333 17.2699 13.1577 16.9616 12.8452C16.6532 12.5326 16.48 12.1087 16.48 11.6667C16.48 11.2246 16.6532 10.8007 16.9616 10.4882C17.2699 10.1756 17.6881 10 18.1242 10C18.5602 10 18.9784 10.1756 19.2868 10.4882C19.5951 10.8007 19.7683 11.2246 19.7683 11.6667Z" fill="#0F0F11"/>
</svg>
