<svg width="25" height="25" viewBox="0 0 25 25" fill="none" xmlns="http://www.w3.org/2000/svg">
<path d="M12.5 15.625C14.2259 15.625 15.625 14.2259 15.625 12.5C15.625 10.7741 14.2259 9.375 12.5 9.375C10.7741 9.375 9.375 10.7741 9.375 12.5C9.375 14.2259 10.7741 15.625 12.5 15.625Z" fill="#0000FF" fill-opacity="0.5"/>
<path fill-rule="evenodd" clip-rule="evenodd" d="M3.25462 10.9375C3.91325 7.0117 7.0117 3.91325 10.9375 3.25462V0H14.0625V3.25462C17.9883 3.91325 21.0867 7.0117 21.7453 10.9375H25V14.0625H21.7453C21.0867 17.9883 17.9883 21.0867 14.0625 21.7453V25H10.9375V21.7453C7.0117 21.0867 3.91325 17.9883 3.25462 14.0625H0V10.9375H3.25462ZM6.25 12.5C6.25 9.04822 9.04822 6.25 12.5 6.25C15.9517 6.25 18.75 9.04822 18.75 12.5C18.75 15.9517 15.9517 18.75 12.5 18.75C9.04822 18.75 6.25 15.9517 6.25 12.5Z" fill="#0000FF" fill-opacity="0.5"/>
</svg>
