<svg width="25" height="30" viewBox="0 0 25 30" fill="none" xmlns="http://www.w3.org/2000/svg">
<path d="M12.5 0.25C15.7493 0.25 18.8659 1.5337 21.1631 3.81738C23.4599 6.10097 24.75 9.19807 24.75 12.4268C24.7499 15.6555 23.4601 18.7526 21.1631 21.0361L12.5 29.6465L3.83789 21.0361C2.70046 19.9055 1.79816 18.563 1.18262 17.0859C0.567122 15.6088 0.250046 14.0255 0.25 12.4268C0.25 10.828 0.567153 9.2447 1.18262 7.76758C1.79814 6.29042 2.70043 4.94807 3.83789 3.81738C6.13504 1.53373 9.25071 0.250035 12.5 0.25ZM12.5 8.62598C11.4872 8.62601 10.5155 9.02599 9.79883 9.73828C9.08205 10.4508 8.67871 11.4184 8.67871 12.4268C8.6788 13.435 9.08213 14.4018 9.79883 15.1143C10.5155 15.8266 11.4872 16.2265 12.5 16.2266C13.5128 16.2266 14.4845 15.8266 15.2012 15.1143C15.9179 14.4018 16.3212 13.435 16.3213 12.4268C16.3213 11.4184 15.9179 10.4508 15.2012 9.73828C14.4845 9.02604 13.5128 8.62598 12.5 8.62598Z" fill="#E8E800" stroke="#0F0F11" stroke-width="0.5"/>
</svg>
