<svg width="22" height="22" viewBox="0 0 22 22" fill="none" xmlns="http://www.w3.org/2000/svg">
<path fill-rule="evenodd" clip-rule="evenodd" d="M1.1 21.175C1.1 21.6304 1.4696 22 1.925 22H3.7015C3.89688 22 4.08593 21.9307 4.23499 21.8044C4.38406 21.6781 4.48346 21.503 4.5155 21.3103L4.95 18.7H17.05L17.4845 21.3103C17.5165 21.503 17.6159 21.6781 17.765 21.8044C17.9141 21.9307 18.1031 22 18.2985 22H20.075C20.2938 22 20.5036 21.9131 20.6584 21.7584C20.8131 21.6036 20.9 21.3938 20.9 21.175V8.8L21.758 7.942C21.9128 7.78743 21.9998 7.57773 22 7.359V5.225C22 5.0062 21.9131 4.79635 21.7584 4.64164C21.6036 4.48692 21.3938 4.4 21.175 4.4H20.9V3.3055C20.9 2.0174 20.0046 0.9042 18.733 0.6952C16.8289 0.3817 13.915 0 11 0C8.085 0 5.1711 0.3817 3.267 0.6952C1.9954 0.9042 1.1 2.0174 1.1 3.3055V4.4H0.825C0.606196 4.4 0.396354 4.48692 0.241637 4.64164C0.0869193 4.79635 0 5.0062 0 5.225V7.359C0 7.5768 0.0869 7.7869 0.242 7.942L1.1 8.8V21.175ZM6.6 13.75C6.6 14.1876 6.42616 14.6073 6.11673 14.9167C5.80729 15.2262 5.38761 15.4 4.95 15.4C4.51239 15.4 4.09271 15.2262 3.78327 14.9167C3.47384 14.6073 3.3 14.1876 3.3 13.75C3.3 13.3124 3.47384 12.8927 3.78327 12.5833C4.09271 12.2738 4.51239 12.1 4.95 12.1C5.38761 12.1 5.80729 12.2738 6.11673 12.5833C6.42616 12.8927 6.6 13.3124 6.6 13.75ZM17.05 15.4C17.4876 15.4 17.9073 15.2262 18.2167 14.9167C18.5262 14.6073 18.7 14.1876 18.7 13.75C18.7 13.3124 18.5262 12.8927 18.2167 12.5833C17.9073 12.2738 17.4876 12.1 17.05 12.1C16.6124 12.1 16.1927 12.2738 15.8833 12.5833C15.5738 12.8927 15.4 13.3124 15.4 13.75C15.4 14.1876 15.5738 14.6073 15.8833 14.9167C16.1927 15.2262 16.6124 15.4 17.05 15.4ZM3.3 3.4595V9.9H18.7V3.4595C18.7 3.0525 18.403 2.706 17.9982 2.6543C16.7156 2.4893 13.8578 2.1681 11 2.1681C8.1422 2.1681 5.2844 2.4882 4.0018 2.6543C3.80683 2.68002 3.62794 2.77601 3.49873 2.92427C3.36951 3.07252 3.29885 3.26284 3.3 3.4595Z" fill="#0F0F11"/>
</svg>
