<svg width="26" height="26" viewBox="0 0 26 26" fill="none" xmlns="http://www.w3.org/2000/svg">
<path fill-rule="evenodd" clip-rule="evenodd" d="M1.3 25.025C1.3 25.5632 1.7368 26 2.275 26H4.3745C4.6054 26 4.82882 25.9181 5.00499 25.7689C5.18116 25.6196 5.29863 25.4127 5.3365 25.1849L5.85 22.1H20.15L20.6635 25.1849C20.7014 25.4127 20.8188 25.6196 20.995 25.7689C21.1712 25.9181 21.3946 26 21.6255 26H23.725C23.9836 26 24.2316 25.8973 24.4144 25.7144C24.5973 25.5316 24.7 25.2836 24.7 25.025V10.4L25.714 9.386C25.8969 9.20333 25.9998 8.9555 26 8.697V6.175C26 5.91641 25.8973 5.66842 25.7144 5.48557C25.5316 5.30272 25.2836 5.2 25.025 5.2H24.7V3.9065C24.7 2.3842 23.6418 1.0686 22.139 0.8216C19.8887 0.4511 16.445 0 13 0C9.555 0 6.1113 0.4511 3.861 0.8216C2.3582 1.0686 1.3 2.3842 1.3 3.9065V5.2H0.975C0.716414 5.2 0.468419 5.30272 0.285571 5.48557C0.102723 5.66842 0 5.91641 0 6.175V8.697C0 8.9544 0.1027 9.2027 0.286 9.386L1.3 10.4V25.025ZM7.8 16.25C7.8 16.7672 7.59455 17.2632 7.22886 17.6289C6.86316 17.9946 6.36717 18.2 5.85 18.2C5.33283 18.2 4.83684 17.9946 4.47114 17.6289C4.10545 17.2632 3.9 16.7672 3.9 16.25C3.9 15.7328 4.10545 15.2368 4.47114 14.8711C4.83684 14.5054 5.33283 14.3 5.85 14.3C6.36717 14.3 6.86316 14.5054 7.22886 14.8711C7.59455 15.2368 7.8 15.7328 7.8 16.25ZM20.15 18.2C20.6672 18.2 21.1632 17.9946 21.5289 17.6289C21.8946 17.2632 22.1 16.7672 22.1 16.25C22.1 15.7328 21.8946 15.2368 21.5289 14.8711C21.1632 14.5054 20.6672 14.3 20.15 14.3C19.6328 14.3 19.1368 14.5054 18.7711 14.8711C18.4054 15.2368 18.2 15.7328 18.2 16.25C18.2 16.7672 18.4054 17.2632 18.7711 17.6289C19.1368 17.9946 19.6328 18.2 20.15 18.2ZM3.9 4.0885V11.7H22.1V4.0885C22.1 3.6075 21.749 3.198 21.2706 3.1369C19.7548 2.9419 16.3774 2.5623 13 2.5623C9.6226 2.5623 6.2452 2.9406 4.7294 3.1369C4.49898 3.16729 4.28757 3.28074 4.13486 3.45595C3.98215 3.63116 3.89864 3.85608 3.9 4.0885Z" fill="#F9FAFB"/>
</svg>
