<svg width="30" height="35" viewBox="0 0 30 35" fill="none" xmlns="http://www.w3.org/2000/svg">
<path fill-rule="evenodd" clip-rule="evenodd" d="M12.8571 0C12.4593 0.000214777 12.0694 0.11239 11.731 0.323962C11.3927 0.535534 11.1193 0.838148 10.9414 1.19791L9.39 4.33242H2.14286C1.57454 4.33242 1.02949 4.56064 0.627628 4.96689C0.225765 5.37313 0 5.92411 0 6.49863C0 7.07314 0.225765 7.62412 0.627628 8.03037C1.02949 8.43661 1.57454 8.66484 2.14286 8.66484V30.3269C2.14286 31.476 2.59439 32.5779 3.39811 33.3904C4.20184 34.2029 5.29193 34.6593 6.42857 34.6593H23.5714C24.7081 34.6593 25.7982 34.2029 26.6019 33.3904C27.4056 32.5779 27.8571 31.476 27.8571 30.3269V8.66484C28.4255 8.66484 28.9705 8.43661 29.3724 8.03037C29.7742 7.62412 30 7.07314 30 6.49863C30 5.92411 29.7742 5.37313 29.3724 4.96689C28.9705 4.56064 28.4255 4.33242 27.8571 4.33242H20.61L19.0586 1.19791C18.8807 0.838148 18.6073 0.535534 18.269 0.323962C17.9306 0.11239 17.5407 0.000214777 17.1429 0H12.8571ZM8.57143 12.9973C8.57143 12.4227 8.79719 11.8718 9.19906 11.4655C9.60092 11.0593 10.146 10.831 10.7143 10.831C11.2826 10.831 11.8277 11.0593 12.2295 11.4655C12.6314 11.8718 12.8571 12.4227 12.8571 12.9973V25.9945C12.8571 26.569 12.6314 27.12 12.2295 27.5262C11.8277 27.9325 11.2826 28.1607 10.7143 28.1607C10.146 28.1607 9.60092 27.9325 9.19906 27.5262C8.79719 27.12 8.57143 26.569 8.57143 25.9945V12.9973ZM19.2857 10.831C18.7174 10.831 18.1723 11.0593 17.7705 11.4655C17.3686 11.8718 17.1429 12.4227 17.1429 12.9973V25.9945C17.1429 26.569 17.3686 27.12 17.7705 27.5262C18.1723 27.9325 18.7174 28.1607 19.2857 28.1607C19.854 28.1607 20.3991 27.9325 20.8009 27.5262C21.2028 27.12 21.4286 26.569 21.4286 25.9945V12.9973C21.4286 12.4227 21.2028 11.8718 20.8009 11.4655C20.3991 11.0593 19.854 10.831 19.2857 10.831Z" fill="#F9FAFB"/>
</svg>
