<svg width="25" height="25" viewBox="0 0 25 25" fill="none" xmlns="http://www.w3.org/2000/svg">
<path fill-rule="evenodd" clip-rule="evenodd" d="M10.7143 0C10.3827 0.00015492 10.0578 0.0810674 9.77585 0.233676C9.49389 0.386284 9.26606 0.604561 9.11786 0.864062L7.825 3.125H1.78571C1.31211 3.125 0.85791 3.28962 0.523023 3.58265C0.188137 3.87567 0 4.2731 0 4.6875C0 5.1019 0.188137 5.49933 0.523023 5.79235C0.85791 6.08538 1.31211 6.25 1.78571 6.25V21.875C1.78571 22.7038 2.16199 23.4987 2.83176 24.0847C3.50153 24.6708 4.40994 25 5.35714 25H19.6429C20.5901 25 21.4985 24.6708 22.1682 24.0847C22.838 23.4987 23.2143 22.7038 23.2143 21.875V6.25C23.6879 6.25 24.1421 6.08538 24.477 5.79235C24.8119 5.49933 25 5.1019 25 4.6875C25 4.2731 24.8119 3.87567 24.477 3.58265C24.1421 3.28962 23.6879 3.125 23.2143 3.125H17.175L15.8821 0.864062C15.7339 0.604561 15.5061 0.386284 15.2242 0.233676C14.9422 0.0810674 14.6173 0.00015492 14.2857 0H10.7143ZM7.14286 9.375C7.14286 8.9606 7.33099 8.56317 7.66588 8.27015C8.00077 7.97712 8.45497 7.8125 8.92857 7.8125C9.40217 7.8125 9.85638 7.97712 10.1913 8.27015C10.5261 8.56317 10.7143 8.9606 10.7143 9.375V18.75C10.7143 19.1644 10.5261 19.5618 10.1913 19.8549C9.85638 20.1479 9.40217 20.3125 8.92857 20.3125C8.45497 20.3125 8.00077 20.1479 7.66588 19.8549C7.33099 19.5618 7.14286 19.1644 7.14286 18.75V9.375ZM16.0714 7.8125C15.5978 7.8125 15.1436 7.97712 14.8087 8.27015C14.4739 8.56317 14.2857 8.9606 14.2857 9.375V18.75C14.2857 19.1644 14.4739 19.5618 14.8087 19.8549C15.1436 20.1479 15.5978 20.3125 16.0714 20.3125C16.545 20.3125 16.9992 20.1479 17.3341 19.8549C17.669 19.5618 17.8571 19.1644 17.8571 18.75V9.375C17.8571 8.9606 17.669 8.56317 17.3341 8.27015C16.9992 7.97712 16.545 7.8125 16.0714 7.8125Z" fill="#929292"/>
</svg>
