<svg width="16" height="26" viewBox="0 0 16 26" fill="none" xmlns="http://www.w3.org/2000/svg">
<path d="M9.12992 4.70685C10.4296 4.70685 11.4831 3.65327 11.4831 2.35318C11.4831 1.05358 10.4296 0 9.12992 0C7.82982 0 6.77625 1.05358 6.77625 2.35323C6.77625 3.65327 7.82982 4.70685 9.12992 4.70685Z" fill="#929292"/>
<path d="M15.5278 11.7369L12.8323 10.3198L11.6961 7.98561C11.1233 6.80811 10.0257 5.97244 8.73779 5.73316L7.56891 5.51575C6.98105 5.40684 6.37371 5.48531 5.8326 5.7409L2.42857 7.34828C2.05044 7.52669 1.75173 7.8372 1.5874 8.22078L0.0735585 11.7556C-0.0226585 11.9803 -0.0244926 12.234 0.0681057 12.4596C0.160704 12.6857 0.340448 12.8654 0.566094 12.958L0.6001 12.9717C1.05129 13.1564 1.56832 12.9526 1.77265 12.5099L3.16212 9.5008L5.36148 8.78995L3.18214 18.4756L1.05952 23.768C0.94194 24.0613 0.955126 24.3904 1.09497 24.6732C1.23476 24.9565 1.48846 25.1666 1.79262 25.2515L1.88433 25.2769C2.37231 25.4131 2.89027 25.202 3.14442 24.7635L5.66019 20.418L7.15906 17.4438L9.89448 20.4625L11.915 24.7431C12.1428 25.2257 12.6816 25.4785 13.1982 25.3446L13.2209 25.3382C13.521 25.2606 13.7743 25.0613 13.9214 24.7885C14.0671 24.5157 14.0934 24.1939 13.9926 23.901L12.506 19.5918C12.2972 18.9858 11.9877 18.4198 11.5904 17.9168L9.1764 14.7248L10.062 10.1187L11.205 11.5708C11.3462 11.7505 11.5291 11.894 11.7375 11.9885L14.7443 13.3461C14.9618 13.4442 15.2097 13.4501 15.4316 13.3625C15.6536 13.2748 15.8306 13.101 15.9223 12.8808L15.9319 12.8577C16.1079 12.436 15.9323 11.9498 15.5278 11.7369Z" fill="#929292"/>
</svg>
