<svg width="8" height="13" viewBox="0 0 8 13" fill="none" xmlns="http://www.w3.org/2000/svg">
<path d="M4.56496 2.35343C5.21479 2.35343 5.74158 1.82664 5.74158 1.17659C5.74158 0.52679 5.21479 0 4.56496 0C3.91491 0 3.38812 0.52679 3.38812 1.17661C3.38812 1.82664 3.91491 2.35343 4.56496 2.35343Z" fill="black"/>
<path d="M7.76392 5.86847L6.41616 5.15988L5.84808 3.99281C5.56166 3.40405 5.01286 2.98622 4.36891 2.86658L3.78446 2.75787C3.49053 2.70342 3.18686 2.74265 2.9163 2.87045L1.21429 3.67414C1.02522 3.76334 0.875866 3.9186 0.793702 4.11039L0.0367793 5.87779C-0.0113293 5.99014 -0.0122463 6.11702 0.0340529 6.22979C0.0803521 6.34284 0.170224 6.43271 0.283048 6.47901L0.30005 6.48583C0.525648 6.57818 0.78416 6.47631 0.886326 6.25497L1.58106 4.7504L2.68074 4.39498L1.59108 9.2378L0.529762 11.884C0.470971 12.0307 0.477564 12.1952 0.547484 12.3366C0.617379 12.4782 0.744231 12.5833 0.896314 12.6258L0.942168 12.6385C1.18616 12.7065 1.44514 12.601 1.57221 12.3818L2.8301 10.209L3.57954 8.72192L4.94725 10.2313L5.9575 12.3716C6.07142 12.6128 6.34084 12.7392 6.59913 12.6723L6.61048 12.6691C6.7605 12.6303 6.88716 12.5307 6.9607 12.3943C7.03357 12.2578 7.0467 12.0969 6.99634 11.9505L6.25302 9.79592C6.14863 9.49292 5.99384 9.20989 5.79523 8.95842L4.58821 7.36239L5.03102 5.05933L5.60253 5.78539C5.67312 5.87526 5.76458 5.94699 5.86875 5.99423L7.37218 6.67306C7.48092 6.72211 7.60485 6.72505 7.71581 6.68123C7.82682 6.63741 7.91533 6.55052 7.96119 6.44042L7.96595 6.42884C8.05396 6.21799 7.96614 5.97492 7.76392 5.86847Z" fill="black"/>
</svg>
