<?xml version="1.0" encoding="UTF-8" standalone="no"?>
<svg
   viewBox="0 0 512 1024"
   version="1.1"
   id="svg1"
   sodipodi:docname="stop-sign.svg"
   inkscape:version="1.4.1-rc (06eac75fbf, 2025-03-29)"
   width="512"
   height="1024"
   xmlns:inkscape="http://www.inkscape.org/namespaces/inkscape"
   xmlns:sodipodi="http://sodipodi.sourceforge.net/DTD/sodipodi-0.dtd"
   xmlns="http://www.w3.org/2000/svg"
   xmlns:svg="http://www.w3.org/2000/svg">
  <defs
     id="defs1" />
  <sodipodi:namedview
     id="namedview1"
     pagecolor="#ffffff"
     bordercolor="#000000"
     borderopacity="0.25"
     inkscape:showpageshadow="2"
     inkscape:pageopacity="0.0"
     inkscape:pagecheckerboard="0"
     inkscape:deskcolor="#d1d1d1"
     inkscape:zoom="0.56884764"
     inkscape:cx="167.88327"
     inkscape:cy="703.17598"
     inkscape:window-width="2560"
     inkscape:window-height="1371"
     inkscape:window-x="0"
     inkscape:window-y="0"
     inkscape:window-maximized="1"
     inkscape:current-layer="svg1"
     showgrid="false" />
  <!--!Font Awesome Free 6.7.1 by @fontawesome - https://fontawesome.com License - https://fontawesome.com/license/free Copyright 2024 Fonticons, Inc.-->
  <g
     id="g3"
     transform="translate(0.55297852,14.439626)">
    <g
       id="g2">
      <circle
         style="fill:#000000;fill-opacity:1;stroke:none;stroke-width:42.2144;stroke-linecap:round;stroke-linejoin:round;stroke-dasharray:none;paint-order:markers stroke fill"
         id="path2"
         cx="255.44702"
         cy="261.04077"
         r="225.61382" />
      <path
         d="m 255.44702,145.50556 c 60.65599,0 101.09331,15.88609 101.09331,36.10475 v 7.22096 14.44189 c 7.98817,0 14.4419,6.45373 14.4419,14.44189 v 28.88382 c 0,7.98817 -6.45373,14.4419 -14.4419,14.4419 v 72.20951 c 0,7.98816 -6.45373,14.4419 -14.4419,14.4419 v 14.4419 c 0,7.98817 -6.45374,14.4419 -14.4419,14.4419 h -14.44192 c -7.98816,0 -14.44189,-6.45373 -14.44189,-14.4419 v -14.4419 H 212.1213 v 14.4419 c 0,7.98817 -6.4537,14.4419 -14.44189,14.4419 h -14.44189 c -7.98818,0 -14.44191,-6.45373 -14.44191,-14.4419 v -14.4419 c -7.98818,0 -14.44189,-6.45374 -14.44189,-14.4419 v -72.20951 c -7.98819,0 -14.44191,-6.45373 -14.44191,-14.4419 v -28.88382 c 0,-7.98816 6.45372,-14.44189 14.44191,-14.44189 0,0 0,0 0,0 v -14.44189 c 0,0 0,0 0,0 v -7.22096 c 0,-20.21866 40.43732,-36.10475 101.0933,-36.10475 z m -72.2095,72.20949 v 43.32572 c 0,7.98817 6.45373,14.4419 14.44189,14.4419 h 50.54666 v -72.20951 h -50.54666 c -7.98816,0 -14.44189,6.45373 -14.44189,14.44189 z m 79.43044,57.76762 h 50.54665 c 7.98819,0 14.44192,-6.45373 14.44192,-14.4419 v -43.32572 c 0,-7.98816 -6.45373,-14.44189 -14.44192,-14.44189 h -50.54665 z m -72.2095,50.54665 a 14.441901,14.441901 0 1 0 0,-28.8838 14.441901,14.441901 0 1 0 0,28.8838 z m 129.97711,0 a 14.441901,14.441901 0 1 0 0,-28.8838 14.441901,14.441901 0 1 0 0,28.8838 z M 298.77272,181.61031 c 0,-3.97151 -3.24943,-7.22095 -7.22095,-7.22095 h -72.20951 c -3.97152,0 -7.22096,3.24944 -7.22096,7.22095 0,3.97152 3.24944,7.22096 7.22096,7.22096 h 72.20951 c 3.97152,0 7.22095,-3.24944 7.22095,-7.22096 z"
         id="path1-5"
         style="fill:#ffffff;stroke-width:0.45131" />
    </g>
    <rect
       style="fill:none;fill-opacity:1;stroke:#000000;stroke-width:37.7953;stroke-linecap:round;stroke-linejoin:round;stroke-dasharray:none;paint-order:markers stroke fill"
       id="rect2"
       width="26.078217"
       height="455.81876"
       x="242.40791"
       y="484.97739" />
  </g>
</svg>
