<?xml version="1.0" encoding="UTF-8" standalone="no"?>
<svg
   viewBox="0 0 512 512"
   version="1.1"
   id="svg1"
   sodipodi:docname="stop-wheelchair.svg"
   inkscape:version="1.4.1-rc (06eac75fbf, 2025-03-29)"
   xmlns:inkscape="http://www.inkscape.org/namespaces/inkscape"
   xmlns:sodipodi="http://sodipodi.sourceforge.net/DTD/sodipodi-0.dtd"
   xmlns="http://www.w3.org/2000/svg"
   xmlns:svg="http://www.w3.org/2000/svg">
  <defs
     id="defs1" />
  <sodipodi:namedview
     id="namedview1"
     pagecolor="#ffffff"
     bordercolor="#000000"
     borderopacity="0.25"
     inkscape:showpageshadow="2"
     inkscape:pageopacity="0.0"
     inkscape:pagecheckerboard="0"
     inkscape:deskcolor="#d1d1d1"
     inkscape:zoom="0.56884764"
     inkscape:cx="352.46696"
     inkscape:cy="210.95279"
     inkscape:window-width="2560"
     inkscape:window-height="1371"
     inkscape:window-x="0"
     inkscape:window-y="0"
     inkscape:window-maximized="1"
     inkscape:current-layer="svg1"
     showgrid="false" />
  <!--!Font Awesome Free 6.7.1 by @fontawesome - https://fontawesome.com License - https://fontawesome.com/license/free Copyright 2024 Fonticons, Inc.-->
  <path
     d="m 207.11523,256.00781 a 75.366746,75.366746 0 1 0 0,150.73242 75.366746,75.366746 0 1 0 0,-150.73242 z"
     id="path3"
     style="" />
  <path
     d="m 256,0 a 256,256 0 0 0 0,512 256,256 0 0 0 0,-512 z m 114.41016,55.013672 a 37.683373,37.683373 0 0 1 37.68164,37.699219 37.683373,37.683373 0 1 1 -75.36524,0 37.683373,37.683373 0 0 1 37.6836,-37.699219 z m -131.66211,43.84375 c 8.42401,0.27048 16.84442,2.235858 24.73437,5.945308 l 70.9707,33.36524 c 22.84553,10.75545 28.8911,40.51028 11.9336,59.27344 l -30.06836,33.44336 h 76.46484 c 23.78761,0 41.60848,21.74788 36.97657,45.06445 l -22.13868,110.61523 c -2.74774,13.5817 -15.93549,22.45283 -29.5957,19.70508 -13.66021,-2.74775 -22.45478,-15.93745 -19.70703,-29.59766 l 19.15625,-95.54296 h -55.18945 c 6.7516,15.38736 10.4414,32.34651 10.4414,50.24609 0,69.40014 -56.21119,125.61133 -125.61133,125.61133 -69.40013,0 -125.611324,-56.21119 -125.611324,-125.61133 0,-69.40014 56.211194,-125.61133 125.611324,-125.61133 8.71428,0 17.27083,0.86269 25.43555,2.58985 l 42.55078,-42.55079 -33.05078,-15.54492 c -4.23937,-1.96268 -9.18517,-1.49032 -12.875,1.33594 l -32.10937,24.10156 c -11.06948,8.32174 -26.85015,6.04409 -35.17188,-5.02539 -8.32174,-11.06948 -6.0441,-26.84819 5.02539,-35.16992 l 32.10938,-24.10156 c 11.62884,-8.7339 25.67873,-12.991819 39.71875,-12.541018 z"
     id="path2"
     style="" />
</svg>
